<svg width="820" height="59" viewBox="0 0 820 59" fill="none" xmlns="http://www.w3.org/2000/svg">
<path d="M0 0H470.466L433.406 58.5157H0V0Z" fill="#FB1E2C"/>
<path d="M126.104 28.6461V23.6265C126.104 23.3232 125.997 23.0654 125.785 22.853C125.572 22.6407 125.318 22.5346 125.025 22.5346C124.721 22.5346 124.462 22.6407 124.249 22.853C124.037 23.0654 123.93 23.3232 123.93 23.6265V28.6461H126.104ZM121.164 19.7746C122.228 18.713 123.515 18.1822 125.025 18.1822C126.524 18.1822 127.806 18.713 128.87 19.7746C129.934 20.8361 130.466 22.1201 130.466 23.6265V37.3507H126.104V32.9984H123.93V37.3507H119.568V23.6265C119.568 22.1201 120.1 20.8361 121.164 19.7746Z" fill="white"/>
<path d="M118.626 33.0136V37.3659H109.035V18.6372H113.397V33.0136H118.626Z" fill="white"/>
<path d="M95.0968 37.3659H90.7345L89.9897 32.1188L89.9593 31.9217C89.9188 31.6184 89.7769 31.3606 89.5337 31.1483C89.2905 30.936 89.022 30.8298 88.7281 30.8298H87.7858V37.3659H83.4235V18.6372H87.7858V26.4775H88.409C88.713 26.4775 88.9865 26.3713 89.2297 26.159C89.4729 25.9467 89.6148 25.6939 89.6553 25.4008L91.0385 18.6372H95.4007L94.0176 25.4159C93.8555 26.5381 93.3893 27.5592 92.6192 28.4792C93.5717 29.4801 94.1392 30.6225 94.3216 31.9065L95.0968 37.3659Z" fill="white"/>
<path d="M77.5565 28.6461V23.6265C77.5565 23.3232 77.4501 23.0654 77.2373 22.853C77.0245 22.6407 76.7712 22.5346 76.4773 22.5346C76.1733 22.5346 75.9149 22.6407 75.7021 22.853C75.4894 23.0654 75.383 23.3232 75.383 23.6265V28.6461H77.5565ZM72.6166 19.7746C73.6806 18.713 74.9675 18.1822 76.4773 18.1822C77.977 18.1822 79.2588 18.713 80.3228 19.7746C81.3868 20.8361 81.9188 22.1201 81.9188 23.6265V37.3507H77.5565V32.9984H75.383V37.3507H71.0207V23.6265C71.0207 22.1201 71.5527 20.8361 72.6166 19.7746Z" fill="white"/>
<path d="M69.7591 18.6524V25.4008C69.7591 26.4926 69.4602 27.4885 68.8624 28.3882C68.2848 29.2678 67.5096 29.925 66.5368 30.3597V37.3507H62.1898V30.39C61.1967 29.9755 60.4013 29.3234 59.8034 28.4337C59.1853 27.5137 58.8763 26.5027 58.8763 25.4008V18.6524H63.2385V25.4008C63.2385 25.7041 63.3449 25.9619 63.5577 26.1742C63.7705 26.3865 64.0238 26.4926 64.3177 26.4926C64.6217 26.4926 64.8801 26.3865 65.0929 26.1742C65.3057 25.9619 65.4121 25.7041 65.4121 25.4008V18.6524H69.7591Z" fill="white"/>
<path d="M52.8117 28.6461V23.6265C52.8117 23.3232 52.7053 23.0654 52.4925 22.853C52.2797 22.6407 52.0263 22.5346 51.7325 22.5346C51.4285 22.5346 51.1701 22.6407 50.9573 22.853C50.7445 23.0654 50.6381 23.3232 50.6381 23.6265V28.6461H52.8117ZM47.8718 19.7746C48.9358 18.713 50.2227 18.1822 51.7325 18.1822C53.2322 18.1822 54.514 18.713 55.578 19.7746C56.6419 20.8361 57.1739 22.1201 57.1739 23.6265V37.3507H52.8117V32.9984H50.6381V37.3507H46.2759V23.6265C46.2759 22.1201 46.8078 20.8361 47.8718 19.7746Z" fill="white"/>
<path d="M44.6647 15.6042V37.472C44.6546 38.9582 44.1175 40.2321 43.0536 41.2936C41.9997 42.345 40.723 42.8758 39.2233 42.8859H39.0105V38.5336H39.2081C39.5121 38.5336 39.7705 38.4274 39.9832 38.2151C40.196 38.0028 40.3024 37.745 40.3024 37.4417V15.6042H44.6647Z" fill="white"/>
<path d="M100.486 18.6524L98.8049 26.5967L101.75 26.3943L100.278 33.6803L105.031 24.5053L101.884 24.7752L104.432 18.6524H107.408V32.3766C107.408 33.8729 106.881 35.1518 105.828 36.2134C104.764 37.2749 103.477 37.8057 101.967 37.8057C100.467 37.8057 99.1854 37.2749 98.1215 36.2134C97.0575 35.1518 96.5255 33.8729 96.5255 32.3766V18.6524H100.486Z" fill="white"/>
<path d="M142.533 33.3814C142.739 33.1754 142.841 32.9253 142.841 32.6311C142.841 32.3467 142.739 32.1015 142.533 31.8955C142.328 31.6896 142.084 31.5866 141.801 31.5866H140.747V33.6903H141.801C142.084 33.6903 142.328 33.5873 142.533 33.3814ZM140.747 27.3645H141.801C142.084 27.3645 142.328 27.2616 142.533 27.0556C142.739 26.8497 142.841 26.5996 142.841 26.3053V22.0833C142.841 21.7989 142.743 21.5537 142.548 21.3477C142.343 21.1418 142.099 21.0388 141.816 21.0388H140.747V27.3645ZM147.045 26.3789C147.025 27.5264 146.674 28.5561 145.99 29.4682C146.674 30.3901 147.025 31.4248 147.045 32.5722V32.7046C147.025 34.1365 146.508 35.3624 145.492 36.3824C144.477 37.3926 143.256 37.9025 141.83 37.9124H136.543V16.8167H141.801C143.237 16.8167 144.467 17.3267 145.492 18.3467C146.517 19.3666 147.035 20.6024 147.045 22.0539V26.3789Z" fill="white"/>
<path d="M153.797 27.3793C154.09 27.3694 154.339 27.2665 154.544 27.0703C154.749 26.8644 154.852 26.6143 154.852 26.3201V25.0402C154.852 24.7558 154.749 24.5106 154.544 24.3046C154.339 24.0987 154.09 23.9957 153.797 23.9957H152.757V27.3793H153.797ZM159.758 37.9124H155.569L154.852 32.837L154.837 32.6458C154.788 32.3516 154.646 32.1015 154.412 31.8955C154.178 31.6896 153.919 31.5866 153.636 31.5866H152.757V37.9124H148.553V19.7736H153.826C155.262 19.7835 156.492 20.2983 157.517 21.3183C158.533 22.3383 159.041 23.574 159.041 25.0255V26.3348C159.041 27.6391 158.616 28.7817 157.766 29.7624C158.46 30.6255 158.879 31.5768 159.026 32.6164L159.041 32.7341L159.758 37.9124Z" fill="white"/>
<path d="M166.862 24.5989C166.852 24.3046 166.75 24.0546 166.554 23.8486C166.349 23.6426 166.1 23.5397 165.807 23.5397C165.515 23.5397 165.266 23.6426 165.06 23.8486C164.855 24.0546 164.753 24.3046 164.753 24.5989V33.0724C164.753 33.3666 164.855 33.6167 165.06 33.8227C165.266 34.0286 165.515 34.1316 165.807 34.1316C166.1 34.1316 166.349 34.0286 166.554 33.8227C166.76 33.6167 166.862 33.3666 166.862 33.0724V24.5989ZM171.051 33.1018C171.041 34.5533 170.524 35.7891 169.498 36.809C168.483 37.829 167.253 38.339 165.807 38.339C164.372 38.339 163.142 37.829 162.116 36.809C161.091 35.7989 160.574 34.5729 160.564 33.1313V24.5547C160.574 23.1032 161.091 21.8724 162.116 20.8623C163.142 19.8423 164.372 19.3323 165.807 19.3323C167.253 19.3323 168.483 19.8423 169.498 20.8623C170.524 21.8822 171.041 23.118 171.051 24.5694V33.1018Z" fill="white"/>
<path d="M182.49 23.9957H179.312V37.9124H175.123V23.9957H172.003V19.7736H182.49V23.9957Z" fill="white"/>
<path d="M193.417 19.7589V37.9271H189.213V33.8227H187.119V37.9271H182.915V19.7589H187.119V29.6006H189.213V19.7589H193.417Z" fill="white"/>
<path d="M199.144 23.981V27.3645H203.348V31.5866H199.144V33.705H204.182V37.9271H194.94V19.7589H204.182V23.981H199.144Z" fill="white"/>
<path d="M210.803 27.3793C211.096 27.3694 211.345 27.2665 211.55 27.0703C211.755 26.8644 211.857 26.6143 211.857 26.3201V25.0402C211.857 24.7558 211.755 24.5106 211.55 24.3046C211.345 24.0987 211.096 23.9957 210.803 23.9957H209.763V27.3793H210.803ZM216.764 37.9124H212.575L211.857 32.837L211.843 32.6458C211.794 32.3516 211.652 32.1015 211.418 31.8955C211.184 31.6896 210.925 31.5866 210.642 31.5866H209.763V37.9124H205.559V19.7736H210.832C212.268 19.7835 213.498 20.2983 214.523 21.3183C215.539 22.3383 216.047 23.574 216.047 25.0255V26.3348C216.047 27.6391 215.622 28.7817 214.772 29.7624C215.466 30.6255 215.885 31.5768 216.032 32.6164L216.047 32.7341L216.764 37.9124Z" fill="white"/>
<path d="M222.945 19.3323C224.351 19.3813 225.548 19.9158 226.534 20.9358C227.51 21.9558 227.998 23.1768 227.998 24.5989V26.7614H223.809V24.5989C223.809 24.3145 223.707 24.0693 223.502 23.8633C223.297 23.6574 223.048 23.5544 222.755 23.5544C222.501 23.5544 222.281 23.6328 222.096 23.7898C222.066 23.8094 222.042 23.8339 222.022 23.8633H222.008C221.988 23.8829 221.969 23.9074 221.949 23.9369H221.935C221.915 23.9663 221.9 23.9908 221.891 24.0104V24.0251H221.876C221.856 24.0546 221.842 24.0791 221.832 24.0987H221.847L221.832 24.1134C221.813 24.1428 221.798 24.1673 221.788 24.187L221.773 24.2311L221.744 24.3488L221.73 24.3929C221.73 24.4027 221.725 24.4223 221.715 24.4518V26.3201C221.715 26.6143 221.817 26.8644 222.022 27.0703C222.228 27.2665 222.472 27.3645 222.755 27.3645L222.945 27.3793C224.351 27.4283 225.548 27.9628 226.534 28.9828C227.51 30.0027 227.998 31.2237 227.998 32.6458C227.998 34.0973 227.491 35.3379 226.475 36.3677C225.45 37.3975 224.21 37.9124 222.755 37.9124H217.511V33.6903H222.755C223.048 33.6903 223.297 33.5873 223.502 33.3814C223.707 33.1754 223.809 32.9302 223.809 32.6458C223.809 32.3516 223.707 32.1015 223.502 31.8955C223.297 31.6896 223.048 31.5866 222.755 31.5866H222.55C221.153 31.5278 219.967 30.9933 218.991 29.9831C218.014 28.9631 217.521 27.747 217.511 26.3348V24.5842C217.521 23.1327 218.034 21.8969 219.049 20.877C220.065 19.857 221.295 19.3421 222.74 19.3323H222.945Z" fill="white"/>
<path d="M475.928 0H486.461L449.401 58.5157H439.258L475.928 0Z" fill="#FB1E2C"/>
<path d="M491.532 0H507.526L470.466 58.5157H454.862L491.532 0Z" fill="#FEAE3E"/>
<path d="M512.597 0H534.833L497.774 58.5157H475.928L512.597 0Z" fill="#5D7A89"/>
<path d="M539.905 0H585.547L548.487 58.5157H503.235L539.905 0Z" fill="#66E77E"/>
<path d="M590.618 0H667.469L630.409 58.5157H553.949L590.618 0Z" fill="#37D1EF"/>
<path d="M672.541 0H820V58.5157H635.871L672.541 0Z" fill="#00A7E6"/>
</svg>
