<svg width="800" height="450" viewBox="0 0 800 450" fill="none" xmlns="http://www.w3.org/2000/svg">
<g clip-path="url(#clip0_171_4519)">
<rect width="800" height="450" rx="30" fill="#FB1E2C"/>
<path d="M703.042 220.609V183.81C703.042 181.587 702.263 179.697 700.704 178.141C699.145 176.584 697.289 175.806 695.136 175.806C692.909 175.806 691.016 176.584 689.457 178.141C687.898 179.697 687.119 181.587 687.119 183.81V220.609H703.042ZM666.853 155.573C674.648 147.79 684.075 143.899 695.136 143.899C706.123 143.899 715.514 147.79 723.308 155.573C731.103 163.355 735 172.767 735 183.81V284.422H703.042V252.515H687.119V284.422H655.161V183.81C655.161 172.767 659.058 163.355 666.853 155.573Z" fill="white"/>
<path d="M648.257 252.626V284.533H577.995V147.235H609.953V252.626H648.257Z" fill="white"/>
<path d="M475.886 284.533H443.928L438.472 246.067L438.249 244.622C437.952 242.399 436.913 240.509 435.131 238.952C433.35 237.396 431.382 236.618 429.23 236.618H422.326V284.533H390.368V147.235H422.326V204.711H426.891C429.118 204.711 431.123 203.933 432.904 202.376C434.686 200.82 435.725 198.967 436.022 196.818L446.155 147.235H478.113L467.98 196.929C466.792 205.156 463.377 212.641 457.736 219.386C464.714 226.723 468.871 235.098 470.207 244.511L475.886 284.533Z" fill="white"/>
<path d="M347.387 220.609V183.81C347.387 181.587 346.607 179.697 345.048 178.141C343.489 176.584 341.633 175.806 339.481 175.806C337.254 175.806 335.361 176.584 333.802 178.141C332.243 179.697 331.463 181.587 331.463 183.81V220.609H347.387ZM311.197 155.573C318.992 147.79 328.42 143.899 339.481 143.899C350.467 143.899 359.858 147.79 367.652 155.573C375.447 163.355 379.344 172.767 379.344 183.81V284.422H347.387V252.515H331.463V284.422H299.506V183.81C299.506 172.767 303.403 163.355 311.197 155.573Z" fill="white"/>
<path d="M290.263 147.346V196.818C290.263 204.822 288.074 212.122 283.694 218.719C279.462 225.167 273.783 229.984 266.657 233.171V284.422H234.811V233.394C227.536 230.355 221.708 225.574 217.328 219.052C212.8 212.308 210.536 204.896 210.536 196.818V147.346H242.494V196.818C242.494 199.041 243.273 200.931 244.832 202.487C246.391 204.044 248.247 204.822 250.4 204.822C252.627 204.822 254.52 204.044 256.079 202.487C257.638 200.931 258.417 199.041 258.417 196.818V147.346H290.263Z" fill="white"/>
<path d="M166.107 220.609V183.81C166.107 181.587 165.327 179.697 163.768 178.141C162.21 176.584 160.354 175.806 158.201 175.806C155.974 175.806 154.081 176.584 152.522 178.141C150.963 179.697 150.184 181.587 150.184 183.81V220.609H166.107ZM129.918 155.573C137.712 147.79 147.14 143.899 158.201 143.899C169.188 143.899 178.578 147.79 186.373 155.573C194.167 163.355 198.065 172.767 198.065 183.81V284.422H166.107V252.515H150.184V284.422H118.226V183.81C118.226 172.767 122.123 163.355 129.918 155.573Z" fill="white"/>
<path d="M106.423 125V285.311C106.348 296.206 102.414 305.545 94.6194 313.327C86.8991 321.035 77.5456 324.926 66.5589 325H65V293.093H66.4476C68.6746 293.093 70.5676 292.315 72.1265 290.759C73.6854 289.202 74.4648 287.312 74.4648 285.089V125H106.423Z" fill="white"/>
<path d="M515.37 147.346L503.051 205.585L524.63 204.101L513.841 257.514L548.661 190.253L525.611 192.232L544.278 147.346H566.08V247.957C566.08 258.926 562.22 268.302 554.5 276.084C546.705 283.866 537.277 287.757 526.217 287.757C515.23 287.757 505.839 283.866 498.045 276.084C490.25 268.302 486.353 258.926 486.353 247.957V147.346H515.37Z" fill="white"/>
<path d="M415.205 352.572C415.966 351.807 416.346 350.877 416.346 349.783C416.346 348.726 415.966 347.815 415.205 347.049C414.445 346.284 413.541 345.901 412.491 345.901H408.582V353.72H412.491C413.541 353.72 414.445 353.338 415.205 352.572ZM408.582 330.207H412.491C413.541 330.207 414.445 329.824 415.205 329.059C415.966 328.293 416.346 327.364 416.346 326.27V310.576C416.346 309.519 415.984 308.608 415.26 307.842C414.5 307.077 413.595 306.694 412.545 306.694H408.582V330.207ZM431.927 326.543C431.855 330.809 430.552 334.636 428.018 338.027C430.552 341.453 431.855 345.299 431.927 349.565V350.057C431.855 355.379 429.937 359.936 426.172 363.727C422.408 367.482 417.884 369.378 412.599 369.414H393V291H412.491C417.811 291 422.372 292.896 426.172 296.687C429.973 300.478 431.891 305.072 431.927 310.467V326.543Z" fill="white"/>
<path d="M456.956 330.262C458.042 330.225 458.965 329.843 459.725 329.113C460.485 328.348 460.865 327.418 460.865 326.325V321.567C460.865 320.51 460.485 319.599 459.725 318.833C458.965 318.068 458.042 317.685 456.956 317.685H453.101V330.262H456.956ZM479.053 369.414H463.525L460.865 350.549L460.811 349.838C460.63 348.744 460.105 347.815 459.236 347.049C458.368 346.284 457.409 345.901 456.359 345.901H453.101V369.414H437.52V301.991H457.065C462.385 302.028 466.946 303.941 470.746 307.733C474.511 311.524 476.393 316.117 476.393 321.513V326.379C476.393 331.228 474.818 335.475 471.669 339.12C474.239 342.328 475.795 345.864 476.338 349.729L476.393 350.166L479.053 369.414Z" fill="white"/>
<path d="M505.385 319.927C505.348 318.833 504.968 317.904 504.245 317.138C503.484 316.373 502.561 315.99 501.476 315.99C500.39 315.99 499.467 316.373 498.707 317.138C497.947 317.904 497.567 318.833 497.567 319.927V351.424C497.567 352.517 497.947 353.447 498.707 354.213C499.467 354.978 500.39 355.361 501.476 355.361C502.561 355.361 503.484 354.978 504.245 354.213C505.005 353.447 505.385 352.517 505.385 351.424V319.927ZM520.912 351.533C520.876 356.928 518.958 361.522 515.157 365.313C511.393 369.104 506.832 371 501.476 371C496.155 371 491.594 369.104 487.794 365.313C483.994 361.558 482.075 357.001 482.039 351.643V319.763C482.075 314.368 483.994 309.792 487.794 306.038C491.594 302.246 496.155 300.351 501.476 300.351C506.832 300.351 511.393 302.246 515.157 306.038C518.958 309.829 520.876 314.422 520.912 319.817V351.533Z" fill="white"/>
<path d="M563.314 317.685H551.533V369.414H536.005V317.685H524.441V301.991H563.314V317.685Z" fill="white"/>
<path d="M603.816 301.936V369.469H588.234V354.213H580.471V369.469H564.889V301.936H580.471V338.519H588.234V301.936H603.816Z" fill="white"/>
<path d="M625.045 317.63V330.207H640.626V345.901H625.045V353.775H643.721V369.469H609.463V301.936H643.721V317.63H625.045Z" fill="white"/>
<path d="M668.261 330.262C669.347 330.225 670.27 329.843 671.03 329.113C671.79 328.348 672.17 327.418 672.17 326.325V321.567C672.17 320.51 671.79 319.599 671.03 318.833C670.27 318.068 669.347 317.685 668.261 317.685H664.406V330.262H668.261ZM690.358 369.414H674.83L672.17 350.549L672.116 349.838C671.935 348.744 671.41 347.815 670.541 347.049C669.673 346.284 668.713 345.901 667.664 345.901H664.406V369.414H648.824V301.991H668.37C673.69 302.028 678.251 303.941 682.051 307.733C685.815 311.524 687.698 316.117 687.698 321.513V326.379C687.698 331.228 686.123 335.475 682.974 339.12C685.544 342.328 687.1 345.864 687.643 349.729L687.698 350.166L690.358 369.414Z" fill="white"/>
<path d="M713.269 300.351C718.481 300.533 722.915 302.52 726.571 306.311C730.19 310.102 732 314.641 732 319.927V327.965H716.472V319.927C716.472 318.87 716.092 317.958 715.332 317.193C714.572 316.427 713.649 316.044 712.563 316.044C711.622 316.044 710.808 316.336 710.12 316.919C710.012 316.992 709.921 317.083 709.849 317.193H709.794C709.722 317.266 709.65 317.357 709.577 317.466H709.523C709.451 317.576 709.396 317.667 709.36 317.74V317.794H709.306C709.233 317.904 709.179 317.995 709.143 318.068H709.197L709.143 318.122C709.071 318.232 709.016 318.323 708.98 318.396L708.926 318.56L708.817 318.997L708.763 319.161C708.763 319.198 708.745 319.271 708.709 319.38V326.325C708.709 327.418 709.089 328.348 709.849 329.113C710.609 329.843 711.514 330.207 712.563 330.207L713.269 330.262C718.481 330.444 722.915 332.431 726.571 336.222C730.19 340.013 732 344.552 732 349.838C732 355.233 730.118 359.845 726.354 363.673C722.553 367.5 717.956 369.414 712.563 369.414H693.127V353.72H712.563C713.649 353.72 714.572 353.338 715.332 352.572C716.092 351.807 716.472 350.895 716.472 349.838C716.472 348.744 716.092 347.815 715.332 347.049C714.572 346.284 713.649 345.901 712.563 345.901H711.803C706.627 345.682 702.23 343.695 698.61 339.941C694.991 336.149 693.163 331.629 693.127 326.379V319.872C693.163 314.477 695.063 309.884 698.828 306.092C702.592 302.301 707.152 300.387 712.509 300.351H713.269Z" fill="white"/>
</g>
<defs>
<clipPath id="clip0_171_4519">
<rect width="800" height="450" fill="white"/>
</clipPath>
</defs>
</svg>
